<svg width="390" height="25" viewBox="0 0 390 25" fill="none" xmlns="http://www.w3.org/2000/svg">
<path d="M4.228 19H0.196L8.344 9.144L0.756 0.323998H4.816L11.424 8.388V0.323998H14.7V8.388L21.308 0.323998H25.368L17.78 9.144L25.928 19H21.896L15.624 11.132L14.7 12.224V19H11.424V12.224L10.5 11.132L4.228 19ZM33.4136 19.336C31.3603 19.336 29.6616 18.6827 28.3176 17.376C26.9923 16.0507 26.3296 14.3333 26.3296 12.224C26.3296 10.2453 26.9736 8.57467 28.2616 7.212C29.5683 5.83067 31.211 5.14 33.1896 5.14C35.187 5.14 36.7923 5.83067 38.0056 7.212C39.2376 8.59333 39.8536 10.3573 39.8536 12.504V13.204H29.4096C29.5216 14.268 29.9603 15.1547 30.7256 15.864C31.491 16.5733 32.4896 16.928 33.7216 16.928C34.4123 16.928 35.103 16.7973 35.7936 16.536C36.503 16.2747 37.091 15.9107 37.5576 15.444L38.9016 17.376C37.539 18.6827 35.7096 19.336 33.4136 19.336ZM36.9976 11.132C36.9603 10.1987 36.615 9.368 35.9616 8.64C35.327 7.912 34.403 7.548 33.1896 7.548C32.0323 7.548 31.127 7.912 30.4736 8.64C29.8203 9.34933 29.4563 10.18 29.3816 11.132H36.9976ZM41.3556 19.336V16.928C41.9342 16.928 42.3916 16.5547 42.7276 15.808C43.0822 15.0613 43.3716 13.8107 43.5956 12.056L44.4076 5.476H54.8516V19H51.9116V8.052H47.0116L46.5356 12.392C46.2742 14.8187 45.7236 16.5827 44.8836 17.684C44.0436 18.7853 42.8676 19.336 41.3556 19.336ZM69.8696 19H66.9296V17.544C65.8843 18.7387 64.4283 19.336 62.5616 19.336C61.3296 19.336 60.2376 18.944 59.2856 18.16C58.3336 17.3573 57.8576 16.256 57.8576 14.856C57.8576 13.4187 58.3243 12.3267 59.2576 11.58C60.2096 10.8333 61.311 10.46 62.5616 10.46C64.4843 10.46 65.9403 11.0387 66.9296 12.196V10.18C66.9296 9.396 66.6403 8.78 66.0616 8.332C65.483 7.884 64.7176 7.66 63.7656 7.66C62.2536 7.66 60.919 8.22933 59.7616 9.368L58.5576 7.324C60.0883 5.868 61.983 5.14 64.2416 5.14C65.903 5.14 67.2563 5.532 68.3016 6.316C69.347 7.1 69.8696 8.34133 69.8696 10.04V19ZM63.7096 17.32C65.1843 17.32 66.2576 16.8533 66.9296 15.92V13.876C66.2576 12.9427 65.1843 12.476 63.7096 12.476C62.8696 12.476 62.179 12.7 61.6376 13.148C61.0963 13.596 60.8256 14.184 60.8256 14.912C60.8256 15.64 61.0963 16.228 61.6376 16.676C62.179 17.1053 62.8696 17.32 63.7096 17.32ZM79.9253 19.336C77.872 19.336 76.1733 18.6827 74.8293 17.376C73.504 16.0507 72.8413 14.3333 72.8413 12.224C72.8413 10.2453 73.4853 8.57467 74.7733 7.212C76.08 5.83067 77.7227 5.14 79.7013 5.14C81.6987 5.14 83.304 5.83067 84.5173 7.212C85.7493 8.59333 86.3653 10.3573 86.3653 12.504V13.204H75.9213C76.0333 14.268 76.472 15.1547 77.2373 15.864C78.0027 16.5733 79.0013 16.928 80.2333 16.928C80.924 16.928 81.6147 16.7973 82.3053 16.536C83.0147 16.2747 83.6027 15.9107 84.0693 15.444L85.4133 17.376C84.0507 18.6827 82.2213 19.336 79.9253 19.336ZM83.5093 11.132C83.472 10.1987 83.1267 9.368 82.4733 8.64C81.8387 7.912 80.9147 7.548 79.7013 7.548C78.544 7.548 77.6387 7.912 76.9853 8.64C76.332 9.34933 75.968 10.18 75.8933 11.132H83.5093ZM94.6713 19H91.7313V8.052H87.8673V5.476H98.5633V8.052H94.6713V19ZM107.214 19.336C105.161 19.336 103.462 18.6827 102.118 17.376C100.793 16.0507 100.13 14.3333 100.13 12.224C100.13 10.2453 100.774 8.57467 102.062 7.212C103.369 5.83067 105.012 5.14 106.99 5.14C108.988 5.14 110.593 5.83067 111.806 7.212C113.038 8.59333 113.654 10.3573 113.654 12.504V13.204H103.21C103.322 14.268 103.761 15.1547 104.526 15.864C105.292 16.5733 106.29 16.928 107.522 16.928C108.213 16.928 108.904 16.7973 109.594 16.536C110.304 16.2747 110.892 15.9107 111.358 15.444L112.702 17.376C111.34 18.6827 109.51 19.336 107.214 19.336ZM110.798 11.132C110.761 10.1987 110.416 9.368 109.762 8.64C109.128 7.912 108.204 7.548 106.99 7.548C105.833 7.548 104.928 7.912 104.274 8.64C103.621 9.34933 103.257 10.18 103.182 11.132H110.798ZM135.844 19H132.904V8.052H126.688V19H123.748V5.476H135.844V19ZM146.942 19.336C145.15 19.336 143.703 18.5987 142.602 17.124V24.152H139.662V5.476H142.602V7.324C143.684 5.868 145.131 5.14 146.942 5.14C148.715 5.14 150.152 5.77467 151.254 7.044C152.374 8.31333 152.934 10.04 152.934 12.224C152.934 14.408 152.374 16.144 151.254 17.432C150.152 18.7013 148.715 19.336 146.942 19.336ZM146.074 16.732C147.231 16.732 148.155 16.312 148.846 15.472C149.536 14.632 149.882 13.5493 149.882 12.224C149.882 10.8987 149.536 9.82533 148.846 9.004C148.155 8.164 147.231 7.744 146.074 7.744C145.402 7.744 144.739 7.92133 144.086 8.276C143.432 8.63067 142.938 9.06 142.602 9.564V14.912C142.938 15.416 143.432 15.8453 144.086 16.2C144.739 16.5547 145.402 16.732 146.074 16.732ZM161.953 19.336C159.863 19.336 158.183 18.6547 156.913 17.292C155.644 15.9107 155.009 14.2213 155.009 12.224C155.009 10.2267 155.644 8.54667 156.913 7.184C158.183 5.82133 159.863 5.14 161.953 5.14C164.063 5.14 165.752 5.82133 167.021 7.184C168.291 8.54667 168.925 10.2267 168.925 12.224C168.925 14.24 168.291 15.9293 167.021 17.292C165.752 18.6547 164.063 19.336 161.953 19.336ZM161.953 16.732C163.167 16.732 164.119 16.3027 164.809 15.444C165.519 14.5667 165.873 13.4933 165.873 12.224C165.873 10.9733 165.519 9.91867 164.809 9.06C164.119 8.18267 163.167 7.744 161.953 7.744C160.759 7.744 159.807 8.18267 159.097 9.06C158.407 9.91867 158.061 10.9733 158.061 12.224C158.061 13.4933 158.407 14.5667 159.097 15.444C159.807 16.3027 160.759 16.732 161.953 16.732ZM170.5 22.444V16.564C171.135 16.4147 171.611 16.0507 171.928 15.472C172.264 14.8747 172.535 13.736 172.74 12.056L173.552 5.476H183.996V16.424H185.48V22.444H182.54V19H173.44V22.444H170.5ZM176.156 8.052L175.68 12.392C175.493 14.184 174.896 15.528 173.888 16.424H181.056V8.052H176.156ZM194 19.336C191.91 19.336 190.23 18.6547 188.96 17.292C187.691 15.9107 187.056 14.2213 187.056 12.224C187.056 10.2267 187.691 8.54667 188.96 7.184C190.23 5.82133 191.91 5.14 194 5.14C196.11 5.14 197.799 5.82133 199.068 7.184C200.338 8.54667 200.972 10.2267 200.972 12.224C200.972 14.24 200.338 15.9293 199.068 17.292C197.799 18.6547 196.11 19.336 194 19.336ZM194 16.732C195.214 16.732 196.166 16.3027 196.856 15.444C197.566 14.5667 197.92 13.4933 197.92 12.224C197.92 10.9733 197.566 9.91867 196.856 9.06C196.166 8.18267 195.214 7.744 194 7.744C192.806 7.744 191.854 8.18267 191.144 9.06C190.454 9.91867 190.108 10.9733 190.108 12.224C190.108 13.4933 190.454 14.5667 191.144 15.444C191.854 16.3027 192.806 16.732 194 16.732ZM202.547 19.336V16.928C203.126 16.928 203.583 16.5547 203.919 15.808C204.274 15.0613 204.563 13.8107 204.787 12.056L205.599 5.476H216.043V19H213.103V8.052H208.203L207.727 12.392C207.466 14.8187 206.915 16.5827 206.075 17.684C205.235 18.7853 204.059 19.336 202.547 19.336ZM221.821 19H218.125L223.865 11.608L218.237 5.476H221.877L226.721 10.768V5.476H229.661V10.768L234.505 5.476H238.145L232.517 11.608L238.257 19H234.561L230.417 13.428L229.661 14.212V19H226.721V14.212L225.965 13.428L221.821 19ZM243.17 19H240.342V5.476H243.282V14.576L249.498 5.476H252.438V19H249.498V9.648L243.17 19ZM261.66 19H258.72V8.052H254.856V5.476H265.552V8.052H261.66V19ZM267.959 5.476H270.899V10.376H275.687C277.124 10.376 278.225 10.7867 278.991 11.608C279.775 12.4293 280.167 13.456 280.167 14.688C280.167 15.9013 279.765 16.928 278.963 17.768C278.179 18.5893 277.087 19 275.687 19H267.959V5.476ZM275.323 12.952H270.899V16.424H275.323C275.901 16.424 276.349 16.2653 276.667 15.948C277.003 15.6307 277.171 15.2107 277.171 14.688C277.171 14.1653 277.003 13.7453 276.667 13.428C276.349 13.1107 275.901 12.952 275.323 12.952ZM297.551 19.336C295.759 19.336 294.313 18.5987 293.211 17.124V24.152H290.271V5.476H293.211V7.324C294.294 5.868 295.741 5.14 297.551 5.14C299.325 5.14 300.762 5.77467 301.863 7.044C302.983 8.31333 303.543 10.04 303.543 12.224C303.543 14.408 302.983 16.144 301.863 17.432C300.762 18.7013 299.325 19.336 297.551 19.336ZM296.683 16.732C297.841 16.732 298.765 16.312 299.455 15.472C300.146 14.632 300.491 13.5493 300.491 12.224C300.491 10.8987 300.146 9.82533 299.455 9.004C298.765 8.164 297.841 7.744 296.683 7.744C296.011 7.744 295.349 7.92133 294.695 8.276C294.042 8.63067 293.547 9.06 293.211 9.564V14.912C293.547 15.416 294.042 15.8453 294.695 16.2C295.349 16.5547 296.011 16.732 296.683 16.732ZM317.659 19H314.719V17.544C313.673 18.7387 312.217 19.336 310.351 19.336C309.119 19.336 308.027 18.944 307.075 18.16C306.123 17.3573 305.647 16.256 305.647 14.856C305.647 13.4187 306.113 12.3267 307.047 11.58C307.999 10.8333 309.1 10.46 310.351 10.46C312.273 10.46 313.729 11.0387 314.719 12.196V10.18C314.719 9.396 314.429 8.78 313.851 8.332C313.272 7.884 312.507 7.66 311.555 7.66C310.043 7.66 308.708 8.22933 307.551 9.368L306.347 7.324C307.877 5.868 309.772 5.14 312.031 5.14C313.692 5.14 315.045 5.532 316.091 6.316C317.136 7.1 317.659 8.34133 317.659 10.04V19ZM311.499 17.32C312.973 17.32 314.047 16.8533 314.719 15.92V13.876C314.047 12.9427 312.973 12.476 311.499 12.476C310.659 12.476 309.968 12.7 309.427 13.148C308.885 13.596 308.615 14.184 308.615 14.912C308.615 15.64 308.885 16.228 309.427 16.676C309.968 17.1053 310.659 17.32 311.499 17.32ZM327.574 16.732C328.788 16.732 329.74 16.2933 330.43 15.416C331.14 14.5387 331.494 13.456 331.494 12.168C331.494 10.936 331.14 9.89067 330.43 9.032C329.74 8.17333 328.788 7.744 327.574 7.744C326.38 7.744 325.428 8.17333 324.718 9.032C324.028 9.89067 323.682 10.936 323.682 12.168C323.682 13.456 324.028 14.5387 324.718 15.416C325.428 16.2933 326.38 16.732 327.574 16.732ZM332.642 17.264C331.392 18.6453 329.702 19.336 327.574 19.336C325.446 19.336 323.757 18.6173 322.506 17.18C321.274 15.724 320.658 13.8667 320.658 11.608C320.658 8.37867 321.209 5.97067 322.31 4.384C323.43 2.79733 325.148 1.864 327.462 1.584C328.862 1.37867 329.824 1.18267 330.346 0.996C330.888 0.809332 331.158 0.585332 331.158 0.323998H334.042C334.042 2.284 332.12 3.47867 328.274 3.908C326.762 4.076 325.596 4.496 324.774 5.168C323.972 5.82133 323.468 6.60533 323.262 7.52C323.804 6.77333 324.504 6.19467 325.362 5.784C326.24 5.35467 327.164 5.14 328.134 5.14C330.001 5.14 331.532 5.83067 332.726 7.212C333.921 8.59333 334.518 10.2547 334.518 12.196C334.518 14.1933 333.893 15.8827 332.642 17.264ZM343.735 19.336C341.644 19.336 339.964 18.6547 338.695 17.292C337.425 15.9107 336.791 14.2213 336.791 12.224C336.791 10.2267 337.425 8.54667 338.695 7.184C339.964 5.82133 341.644 5.14 343.735 5.14C345.844 5.14 347.533 5.82133 348.803 7.184C350.072 8.54667 350.707 10.2267 350.707 12.224C350.707 14.24 350.072 15.9293 348.803 17.292C347.533 18.6547 345.844 19.336 343.735 19.336ZM343.735 16.732C344.948 16.732 345.9 16.3027 346.591 15.444C347.3 14.5667 347.655 13.4933 347.655 12.224C347.655 10.9733 347.3 9.91867 346.591 9.06C345.9 8.18267 344.948 7.744 343.735 7.744C342.54 7.744 341.588 8.18267 340.879 9.06C340.188 9.91867 339.843 10.9733 339.843 12.224C339.843 13.4933 340.188 14.5667 340.879 15.444C341.588 16.3027 342.54 16.732 343.735 16.732ZM359.085 19H356.145V8.052H352.281V5.476H362.977V8.052H359.085V19ZM364.796 24.292L365.244 21.66C365.58 21.8093 365.954 21.884 366.364 21.884C367.316 21.884 367.96 21.492 368.296 20.708L368.968 19.168L363.424 5.476H366.56L370.508 15.612L374.456 5.476H377.62L371.096 21.436C370.294 23.4333 368.744 24.4507 366.448 24.488C365.832 24.488 365.282 24.4227 364.796 24.292ZM382.718 13.512C382.046 12.8773 381.71 12.084 381.71 11.132C381.71 10.3667 381.943 9.68533 382.41 9.088C382.876 8.472 383.39 7.996 383.95 7.66C384.528 7.324 385.051 6.92267 385.518 6.456C385.984 5.98933 386.218 5.49467 386.218 4.972C386.218 4.39333 385.984 3.91733 385.518 3.544C385.07 3.152 384.416 2.956 383.558 2.956C382.027 2.956 380.73 3.60933 379.666 4.916L377.79 2.816C379.302 0.967999 381.336 0.0439987 383.894 0.0439987C385.63 0.0439987 387.011 0.454666 388.038 1.276C389.064 2.09733 389.578 3.152 389.578 4.44C389.578 5.20533 389.4 5.896 389.046 6.512C388.71 7.10933 388.29 7.604 387.786 7.996C387.3 8.36933 386.815 8.724 386.33 9.06C385.844 9.396 385.424 9.76933 385.07 10.18C384.734 10.572 384.566 10.992 384.566 11.44C384.566 11.9253 384.771 12.3453 385.182 12.7L382.718 13.512ZM385.098 18.748C384.724 19.1213 384.267 19.308 383.726 19.308C383.184 19.308 382.718 19.1213 382.326 18.748C381.952 18.356 381.766 17.8893 381.766 17.348C381.766 16.8067 381.952 16.3493 382.326 15.976C382.718 15.584 383.184 15.388 383.726 15.388C384.267 15.388 384.724 15.584 385.098 15.976C385.49 16.3493 385.686 16.8067 385.686 17.348C385.686 17.8893 385.49 18.356 385.098 18.748Z" fill="white"/>
</svg>
