<svg width="160" height="25" viewBox="0 0 160 25" fill="none" xmlns="http://www.w3.org/2000/svg">
<path d="M17.256 19H13.98V10.852H4.264V19H0.988V0.323998H4.264V7.968H13.98V0.323998H17.256V19ZM27.3824 19.336C25.329 19.336 23.6304 18.6827 22.2864 17.376C20.961 16.0507 20.2984 14.3333 20.2984 12.224C20.2984 10.2453 20.9424 8.57467 22.2304 7.212C23.537 5.83067 25.1797 5.14 27.1584 5.14C29.1557 5.14 30.761 5.83067 31.9744 7.212C33.2064 8.59333 33.8224 10.3573 33.8224 12.504V13.204H23.3784C23.4904 14.268 23.929 15.1547 24.6944 15.864C25.4597 16.5733 26.4584 16.928 27.6904 16.928C28.381 16.928 29.0717 16.7973 29.7624 16.536C30.4717 16.2747 31.0597 15.9107 31.5264 15.444L32.8704 17.376C31.5077 18.6827 29.6784 19.336 27.3824 19.336ZM30.9664 11.132C30.929 10.1987 30.5837 9.368 29.9304 8.64C29.2957 7.912 28.3717 7.548 27.1584 7.548C26.001 7.548 25.0957 7.912 24.4424 8.64C23.789 9.34933 23.425 10.18 23.3504 11.132H30.9664ZM42.1283 19H39.1883V8.052H35.3243V5.476H46.0203V8.052H42.1283V19ZM50.3995 17.936C50.3995 18.8693 50.1568 19.756 49.6715 20.596C49.2048 21.4547 48.5701 22.164 47.7675 22.724L46.4515 21.632C46.9181 21.352 47.3475 20.96 47.7395 20.456C48.1315 19.952 48.3741 19.4667 48.4675 19C48.2995 19.056 48.1408 19.084 47.9915 19.084C47.5061 19.084 47.1048 18.9253 46.7875 18.608C46.4701 18.272 46.3115 17.8427 46.3115 17.32C46.3115 16.7973 46.4981 16.3493 46.8715 15.976C47.2448 15.584 47.6928 15.388 48.2155 15.388C48.8128 15.388 49.3261 15.6213 49.7555 16.088C50.1848 16.536 50.3995 17.152 50.3995 17.936ZM63.6982 19H60.3382L63.6702 13.96C62.7368 13.7547 61.9715 13.288 61.3742 12.56C60.7955 11.832 60.5062 10.908 60.5062 9.788C60.5062 8.57467 60.8982 7.55733 61.6822 6.736C62.4848 5.896 63.5862 5.476 64.9862 5.476H72.7142V19H69.7742V14.1H66.6662L63.6982 19ZM65.3502 11.524H69.7742V8.052H65.3502C64.7902 8.052 64.3422 8.22 64.0062 8.556C63.6702 8.87333 63.5022 9.284 63.5022 9.788C63.5022 10.3107 63.6608 10.7307 63.9782 11.048C64.3142 11.3653 64.7715 11.524 65.3502 11.524ZM95.7969 19H92.8569V8.052H86.6409V19H83.7009V5.476H95.7969V19ZM105.719 19.336C103.628 19.336 101.948 18.6547 100.679 17.292C99.4096 15.9107 98.7749 14.2213 98.7749 12.224C98.7749 10.2267 99.4096 8.54667 100.679 7.184C101.948 5.82133 103.628 5.14 105.719 5.14C107.828 5.14 109.518 5.82133 110.787 7.184C112.056 8.54667 112.691 10.2267 112.691 12.224C112.691 14.24 112.056 15.9293 110.787 17.292C109.518 18.6547 107.828 19.336 105.719 19.336ZM105.719 16.732C106.932 16.732 107.884 16.3027 108.575 15.444C109.284 14.5667 109.639 13.4933 109.639 12.224C109.639 10.9733 109.284 9.91867 108.575 9.06C107.884 8.18267 106.932 7.744 105.719 7.744C104.524 7.744 103.572 8.18267 102.863 9.06C102.172 9.91867 101.827 10.9733 101.827 12.224C101.827 13.4933 102.172 14.5667 102.863 15.444C103.572 16.3027 104.524 16.732 105.719 16.732ZM118.494 19H115.666V5.476H118.606V14.576L124.822 5.476H127.762V19H124.822V9.648L118.494 19ZM126.614 1.584C125.4 3.22667 123.767 4.048 121.714 4.048C119.679 4.048 118.036 3.22667 116.786 1.584L118.13 0.463998C119.026 1.696 120.22 2.312 121.714 2.312C123.207 2.312 124.392 1.696 125.27 0.463998L126.614 1.584ZM130.18 22.444V16.564C130.814 16.4147 131.29 16.0507 131.608 15.472C131.944 14.8747 132.214 13.736 132.42 12.056L133.232 5.476H143.676V16.424H145.16V22.444H142.22V19H133.12V22.444H130.18ZM135.836 8.052L135.36 12.392C135.173 14.184 134.576 15.528 133.568 16.424H140.736V8.052H135.836ZM146.988 24.292L147.436 21.66C147.772 21.8093 148.145 21.884 148.556 21.884C149.508 21.884 150.152 21.492 150.488 20.708L151.16 19.168L145.616 5.476H148.752L152.7 15.612L156.648 5.476H159.812L153.288 21.436C152.485 23.4333 150.936 24.4507 148.64 24.488C148.024 24.488 147.473 24.4227 146.988 24.292Z" fill="white" fill-opacity="0.22"/>
</svg>
