<svg width="243" height="30" viewBox="0 0 243 30" fill="none" xmlns="http://www.w3.org/2000/svg">
<path d="M4.2 11.18C3.36 11.18 2.605 11.025 1.935 10.715C1.265 10.405 0.765 10.01 0.435 9.53L1.17 8.735C1.47 9.135 1.89 9.46 2.43 9.71C2.98 9.95 3.56 10.07 4.17 10.07C4.95 10.07 5.565 9.905 6.015 9.575C6.465 9.235 6.69 8.775 6.69 8.195C6.69 7.595 6.455 7.15 5.985 6.86C5.525 6.57 4.895 6.425 4.095 6.425H2.055V5.315H4.095C4.805 5.315 5.385 5.18 5.835 4.91C6.295 4.63 6.525 4.215 6.525 3.665C6.525 3.125 6.295 2.705 5.835 2.405C5.385 2.105 4.815 1.955 4.125 1.955C2.995 1.955 2.05 2.36 1.29 3.17L0.6 2.39C1 1.93 1.51 1.56 2.13 1.28C2.76 0.99 3.455 0.844999 4.215 0.844999C5.235 0.844999 6.085 1.085 6.765 1.565C7.455 2.045 7.8 2.695 7.8 3.515C7.8 4.175 7.575 4.705 7.125 5.105C6.685 5.495 6.19 5.74 5.64 5.84C6.19 5.89 6.71 6.13 7.2 6.56C7.7 6.99 7.95 7.57 7.95 8.3C7.95 9.14 7.605 9.83 6.915 10.37C6.225 10.91 5.32 11.18 4.2 11.18ZM15.5398 11H14.4148V10.175C13.8048 10.845 13.0048 11.18 12.0148 11.18C11.3448 11.18 10.7548 10.965 10.2448 10.535C9.73477 10.105 9.47977 9.52 9.47977 8.78C9.47977 8.02 9.72977 7.435 10.2298 7.025C10.7398 6.605 11.3348 6.395 12.0148 6.395C13.0448 6.395 13.8448 6.725 14.4148 7.385V6.08C14.4148 5.6 14.2448 5.225 13.9048 4.955C13.5648 4.685 13.1248 4.55 12.5848 4.55C11.7348 4.55 10.9948 4.885 10.3648 5.555L9.83977 4.775C10.6098 3.975 11.5748 3.575 12.7348 3.575C13.5648 3.575 14.2398 3.775 14.7598 4.175C15.2798 4.575 15.5398 5.19 15.5398 6.02V11ZM12.4198 10.37C13.3198 10.37 13.9848 10.07 14.4148 9.47V8.105C13.9848 7.505 13.3198 7.205 12.4198 7.205C11.8998 7.205 11.4698 7.355 11.1298 7.655C10.7998 7.945 10.6348 8.325 10.6348 8.795C10.6348 9.255 10.7998 9.635 11.1298 9.935C11.4698 10.225 11.8998 10.37 12.4198 10.37ZM23.8249 11H22.6999V4.745H18.9199V11H17.7949V3.755H23.8249V11ZM31.7263 11H30.6013V10.175C29.9913 10.845 29.1913 11.18 28.2013 11.18C27.5313 11.18 26.9413 10.965 26.4313 10.535C25.9213 10.105 25.6663 9.52 25.6663 8.78C25.6663 8.02 25.9163 7.435 26.4163 7.025C26.9263 6.605 27.5213 6.395 28.2013 6.395C29.2313 6.395 30.0313 6.725 30.6013 7.385V6.08C30.6013 5.6 30.4313 5.225 30.0913 4.955C29.7513 4.685 29.3113 4.55 28.7713 4.55C27.9213 4.55 27.1813 4.885 26.5513 5.555L26.0263 4.775C26.7963 3.975 27.7613 3.575 28.9213 3.575C29.7513 3.575 30.4263 3.775 30.9463 4.175C31.4663 4.575 31.7263 5.19 31.7263 6.02V11ZM28.6063 10.37C29.5063 10.37 30.1713 10.07 30.6013 9.47V8.105C30.1713 7.505 29.5063 7.205 28.6063 7.205C28.0863 7.205 27.6563 7.355 27.3163 7.655C26.9863 7.945 26.8213 8.325 26.8213 8.795C26.8213 9.255 26.9863 9.635 27.3163 9.935C27.6563 10.225 28.0863 10.37 28.6063 10.37ZM40.3564 11H38.9164L36.3064 7.745L35.1064 8.93V11H33.9814V3.755H35.1064V7.61L38.9164 3.755H40.3414L37.1314 7.04L40.3564 11ZM41.2815 13.835L41.4615 12.815C41.6415 12.895 41.8465 12.935 42.0765 12.935C42.3365 12.935 42.5515 12.88 42.7215 12.77C42.8915 12.66 43.0365 12.46 43.1565 12.17L43.6365 11.075L40.6065 3.755H41.8215L44.2365 9.695L46.6365 3.755H47.8665L44.2365 12.47C43.8365 13.43 43.1265 13.92 42.1065 13.94C41.8065 13.94 41.5315 13.905 41.2815 13.835ZM50.12 11H49.04V3.755H50.165V9.29L53.96 3.755H55.07V11H53.945V5.36L50.12 11ZM54.68 1.61C54.03 2.49 53.155 2.93 52.055 2.93C50.965 2.93 50.085 2.49 49.415 1.61L49.97 1.13C50.49 1.85 51.185 2.21 52.055 2.21C52.935 2.21 53.625 1.85 54.125 1.13L54.68 1.61ZM59.7614 11H58.6364V4.745H56.5364V3.755H61.8764V4.745H59.7614V11ZM66.6216 11.18C65.5416 11.18 64.6566 10.83 63.9666 10.13C63.2766 9.42 62.9316 8.5 62.9316 7.37C62.9316 6.31 63.2716 5.415 63.9516 4.685C64.6316 3.945 65.4816 3.575 66.5016 3.575C67.5716 3.575 68.4166 3.945 69.0366 4.685C69.6666 5.415 69.9816 6.34 69.9816 7.46V7.745H64.1166C64.1666 8.455 64.4266 9.05 64.8966 9.53C65.3666 10.01 65.9766 10.25 66.7266 10.25C67.6266 10.25 68.3716 9.945 68.9616 9.335L69.5016 10.07C68.7616 10.81 67.8016 11.18 66.6216 11.18ZM68.8716 6.92C68.8616 6.3 68.6516 5.745 68.2416 5.255C67.8316 4.755 67.2466 4.505 66.4866 4.505C65.7666 4.505 65.1966 4.75 64.7766 5.24C64.3666 5.73 64.1466 6.29 64.1166 6.92H68.8716ZM82.0459 11H80.6059L77.9959 7.745L76.7959 8.93V11H75.6709V3.755H76.7959V7.61L80.6059 3.755H82.0309L78.8209 7.04L82.0459 11ZM89.092 10.085C88.442 10.815 87.577 11.18 86.497 11.18C85.417 11.18 84.547 10.815 83.887 10.085C83.237 9.355 82.912 8.45 82.912 7.37C82.912 6.29 83.237 5.39 83.887 4.67C84.547 3.94 85.417 3.575 86.497 3.575C87.577 3.575 88.442 3.94 89.092 4.67C89.752 5.39 90.082 6.29 90.082 7.37C90.082 8.45 89.752 9.355 89.092 10.085ZM84.727 9.365C85.167 9.905 85.757 10.175 86.497 10.175C87.237 10.175 87.822 9.905 88.252 9.365C88.682 8.815 88.897 8.15 88.897 7.37C88.897 6.59 88.682 5.93 88.252 5.39C87.822 4.85 87.237 4.58 86.497 4.58C85.757 4.58 85.167 4.855 84.727 5.405C84.297 5.945 84.082 6.6 84.082 7.37C84.082 8.15 84.297 8.815 84.727 9.365ZM95.486 11.18C94.466 11.18 93.651 10.755 93.041 9.905V13.76H91.916V3.755H93.041V4.835C93.311 4.455 93.661 4.15 94.091 3.92C94.521 3.69 94.986 3.575 95.486 3.575C96.446 3.575 97.221 3.92 97.811 4.61C98.411 5.29 98.711 6.21 98.711 7.37C98.711 8.53 98.411 9.455 97.811 10.145C97.221 10.835 96.446 11.18 95.486 11.18ZM95.201 10.175C95.911 10.175 96.476 9.915 96.896 9.395C97.316 8.865 97.526 8.19 97.526 7.37C97.526 6.55 97.316 5.88 96.896 5.36C96.476 4.84 95.911 4.58 95.201 4.58C94.771 4.58 94.351 4.695 93.941 4.925C93.541 5.145 93.241 5.415 93.041 5.735V9.005C93.241 9.335 93.541 9.615 93.941 9.845C94.351 10.065 94.771 10.175 95.201 10.175ZM106.26 10.085C105.61 10.815 104.745 11.18 103.665 11.18C102.585 11.18 101.715 10.815 101.055 10.085C100.405 9.355 100.08 8.45 100.08 7.37C100.08 6.29 100.405 5.39 101.055 4.67C101.715 3.94 102.585 3.575 103.665 3.575C104.745 3.575 105.61 3.94 106.26 4.67C106.92 5.39 107.25 6.29 107.25 7.37C107.25 8.45 106.92 9.355 106.26 10.085ZM101.895 9.365C102.335 9.905 102.925 10.175 103.665 10.175C104.405 10.175 104.99 9.905 105.42 9.365C105.85 8.815 106.065 8.15 106.065 7.37C106.065 6.59 105.85 5.93 105.42 5.39C104.99 4.85 104.405 4.58 103.665 4.58C102.925 4.58 102.335 4.855 101.895 5.405C101.465 5.945 101.25 6.6 101.25 7.37C101.25 8.15 101.465 8.815 101.895 9.365ZM110.479 9.365C110.919 9.905 111.509 10.175 112.249 10.175C112.989 10.175 113.574 9.905 114.004 9.365C114.434 8.815 114.649 8.145 114.649 7.355C114.649 6.585 114.434 5.93 114.004 5.39C113.574 4.85 112.989 4.58 112.249 4.58C111.509 4.58 110.919 4.85 110.479 5.39C110.049 5.93 109.834 6.585 109.834 7.355C109.834 8.145 110.049 8.815 110.479 9.365ZM112.249 11.18C111.159 11.18 110.289 10.795 109.639 10.025C108.989 9.255 108.664 8.26 108.664 7.04C108.664 5.32 108.974 4.05 109.594 3.23C110.214 2.4 111.169 1.9 112.459 1.73C113.229 1.61 113.759 1.495 114.049 1.385C114.349 1.275 114.499 1.145 114.499 0.994999H115.594C115.594 1.275 115.509 1.52 115.339 1.73C115.169 1.93 114.924 2.09 114.604 2.21C114.294 2.33 113.999 2.425 113.719 2.495C113.449 2.555 113.124 2.61 112.744 2.66C111.744 2.8 111.019 3.075 110.569 3.485C110.129 3.895 109.839 4.44 109.699 5.12C110.359 4.09 111.269 3.575 112.429 3.575C113.429 3.575 114.244 3.94 114.874 4.67C115.504 5.4 115.819 6.295 115.819 7.355C115.819 8.435 115.494 9.345 114.844 10.085C114.194 10.815 113.329 11.18 112.249 11.18ZM124.116 11H122.676L120.066 7.745L118.866 8.93V11H117.741V3.755H118.866V7.61L122.676 3.755H124.101L120.891 7.04L124.116 11ZM125.041 13.835L125.221 12.815C125.401 12.895 125.606 12.935 125.836 12.935C126.096 12.935 126.311 12.88 126.481 12.77C126.651 12.66 126.796 12.46 126.916 12.17L127.396 11.075L124.366 3.755H125.581L127.996 9.695L130.396 3.755H131.626L127.996 12.47C127.596 13.43 126.886 13.92 125.866 13.94C125.566 13.94 125.291 13.905 125.041 13.835ZM133.465 10.64C133.465 11.08 133.35 11.5 133.12 11.9C132.89 12.31 132.595 12.645 132.235 12.905L131.68 12.44C131.93 12.28 132.145 12.065 132.325 11.795C132.515 11.535 132.625 11.285 132.655 11.045C132.615 11.065 132.545 11.075 132.445 11.075C132.235 11.075 132.06 11.005 131.92 10.865C131.79 10.715 131.725 10.53 131.725 10.31C131.725 10.09 131.8 9.9 131.95 9.74C132.11 9.58 132.3 9.5 132.52 9.5C132.78 9.5 133 9.605 133.18 9.815C133.37 10.015 133.465 10.29 133.465 10.64ZM142.469 11.18C141.399 11.18 140.529 10.82 139.859 10.1C139.189 9.37 138.854 8.46 138.854 7.37C138.854 6.28 139.189 5.375 139.859 4.655C140.529 3.935 141.399 3.575 142.469 3.575C143.589 3.575 144.474 3.995 145.124 4.835L144.374 5.525C143.914 4.895 143.299 4.58 142.529 4.58C141.769 4.58 141.159 4.84 140.699 5.36C140.249 5.88 140.024 6.55 140.024 7.37C140.024 8.19 140.249 8.865 140.699 9.395C141.159 9.915 141.769 10.175 142.529 10.175C143.289 10.175 143.904 9.86 144.374 9.23L145.124 9.92C144.474 10.76 143.589 11.18 142.469 11.18ZM145.846 11.18V10.25C146.186 10.25 146.466 10.025 146.686 9.575C146.906 9.125 147.086 8.375 147.226 7.325L147.691 3.755H152.731V11H151.606V4.745H148.681L148.351 7.46C148.191 8.79 147.911 9.745 147.511 10.325C147.111 10.895 146.556 11.18 145.846 11.18ZM160.738 10.085C160.088 10.815 159.223 11.18 158.143 11.18C157.063 11.18 156.193 10.815 155.533 10.085C154.883 9.355 154.558 8.45 154.558 7.37C154.558 6.29 154.883 5.39 155.533 4.67C156.193 3.94 157.063 3.575 158.143 3.575C159.223 3.575 160.088 3.94 160.738 4.67C161.398 5.39 161.728 6.29 161.728 7.37C161.728 8.45 161.398 9.355 160.738 10.085ZM156.373 9.365C156.813 9.905 157.403 10.175 158.143 10.175C158.883 10.175 159.468 9.905 159.898 9.365C160.328 8.815 160.543 8.15 160.543 7.37C160.543 6.59 160.328 5.93 159.898 5.39C159.468 4.85 158.883 4.58 158.143 4.58C157.403 4.58 156.813 4.855 156.373 5.405C155.943 5.945 155.728 6.6 155.728 7.37C155.728 8.15 155.943 8.815 156.373 9.365ZM163.53 11H162.09L165.315 7.04L162.105 3.755H163.53L166.65 6.95V3.755H167.775V6.935L170.895 3.755H172.32L169.095 7.04L172.335 11H170.895L168.285 7.745L167.775 8.255V11H166.65V8.255L166.14 7.745L163.53 11ZM174.749 11H173.669V3.755H174.794V9.29L178.589 3.755H179.699V11H178.574V5.36L174.749 11ZM184.39 11H183.265V4.745H181.165V3.755H186.505V4.745H184.39V11ZM191.25 11.18C190.17 11.18 189.285 10.83 188.595 10.13C187.905 9.42 187.56 8.5 187.56 7.37C187.56 6.31 187.9 5.415 188.58 4.685C189.26 3.945 190.11 3.575 191.13 3.575C192.2 3.575 193.045 3.945 193.665 4.685C194.295 5.415 194.61 6.34 194.61 7.46V7.745H188.745C188.795 8.455 189.055 9.05 189.525 9.53C189.995 10.01 190.605 10.25 191.355 10.25C192.255 10.25 193 9.945 193.59 9.335L194.13 10.07C193.39 10.81 192.43 11.18 191.25 11.18ZM193.5 6.92C193.49 6.3 193.28 5.745 192.87 5.255C192.46 4.755 191.875 4.505 191.115 4.505C190.395 4.505 189.825 4.75 189.405 5.24C188.995 5.73 188.775 6.29 188.745 6.92H193.5ZM206.675 11H205.235L202.625 7.745L201.425 8.93V11H200.3V3.755H201.425V7.61L205.235 3.755H206.66L203.45 7.04L206.675 11ZM211.575 11.18C210.555 11.18 209.74 10.755 209.13 9.905V13.76H208.005V3.755H209.13V4.835C209.4 4.455 209.75 4.15 210.18 3.92C210.61 3.69 211.075 3.575 211.575 3.575C212.535 3.575 213.31 3.92 213.9 4.61C214.5 5.29 214.8 6.21 214.8 7.37C214.8 8.53 214.5 9.455 213.9 10.145C213.31 10.835 212.535 11.18 211.575 11.18ZM211.29 10.175C212 10.175 212.565 9.915 212.985 9.395C213.405 8.865 213.615 8.19 213.615 7.37C213.615 6.55 213.405 5.88 212.985 5.36C212.565 4.84 212 4.58 211.29 4.58C210.86 4.58 210.44 4.695 210.03 4.925C209.63 5.145 209.33 5.415 209.13 5.735V9.005C209.33 9.335 209.63 9.615 210.03 9.845C210.44 10.065 210.86 10.175 211.29 10.175ZM222.244 11H221.119V10.175C220.509 10.845 219.709 11.18 218.719 11.18C218.049 11.18 217.459 10.965 216.949 10.535C216.439 10.105 216.184 9.52 216.184 8.78C216.184 8.02 216.434 7.435 216.934 7.025C217.444 6.605 218.039 6.395 218.719 6.395C219.749 6.395 220.549 6.725 221.119 7.385V6.08C221.119 5.6 220.949 5.225 220.609 4.955C220.269 4.685 219.829 4.55 219.289 4.55C218.439 4.55 217.699 4.885 217.069 5.555L216.544 4.775C217.314 3.975 218.279 3.575 219.439 3.575C220.269 3.575 220.944 3.775 221.464 4.175C221.984 4.575 222.244 5.19 222.244 6.02V11ZM219.124 10.37C220.024 10.37 220.689 10.07 221.119 9.47V8.105C220.689 7.505 220.024 7.205 219.124 7.205C218.604 7.205 218.174 7.355 217.834 7.655C217.504 7.945 217.339 8.325 217.339 8.795C217.339 9.255 217.504 9.635 217.834 9.935C218.174 10.225 218.604 10.37 219.124 10.37ZM225.579 11H224.259L226.194 8.15C225.644 8.08 225.194 7.85 224.844 7.46C224.504 7.07 224.334 6.575 224.334 5.975C224.334 5.335 224.539 4.805 224.949 4.385C225.359 3.965 225.919 3.755 226.629 3.755H230.454V11H229.329V8.195H227.349L225.579 11ZM226.749 7.205H229.329V4.745H226.749C226.359 4.745 226.049 4.86 225.819 5.09C225.599 5.31 225.489 5.605 225.489 5.975C225.489 6.345 225.599 6.645 225.819 6.875C226.039 7.095 226.349 7.205 226.749 7.205ZM237.649 11H236.569V3.755H237.694V9.29L241.489 3.755H242.599V11H241.474V5.36L237.649 11ZM3.69 29.18C2.3 29.18 1.21 28.785 0.42 27.995L0.975 27.275C1.655 27.925 2.56 28.25 3.69 28.25C4.34 28.25 4.855 28.135 5.235 27.905C5.625 27.675 5.82 27.37 5.82 26.99C5.82 26.19 5.06 25.79 3.54 25.79H1.92V24.875H3.54C4.17 24.875 4.685 24.775 5.085 24.575C5.485 24.365 5.685 24.06 5.685 23.66C5.685 23.32 5.485 23.045 5.085 22.835C4.685 22.615 4.18 22.505 3.57 22.505C2.56 22.505 1.75 22.815 1.14 23.435L0.555 22.745C1.305 21.975 2.295 21.59 3.525 21.59C4.515 21.58 5.315 21.75 5.925 22.1C6.545 22.44 6.855 22.915 6.855 23.525C6.855 24.025 6.65 24.43 6.24 24.74C5.84 25.05 5.395 25.235 4.905 25.295C5.415 25.335 5.89 25.505 6.33 25.805C6.78 26.105 7.005 26.525 7.005 27.065C7.005 27.685 6.705 28.195 6.105 28.595C5.515 28.985 4.71 29.18 3.69 29.18ZM14.4851 29H13.3601V28.175C12.7501 28.845 11.9501 29.18 10.9601 29.18C10.2901 29.18 9.70008 28.965 9.19008 28.535C8.68008 28.105 8.42508 27.52 8.42508 26.78C8.42508 26.02 8.67508 25.435 9.17508 25.025C9.68508 24.605 10.2801 24.395 10.9601 24.395C11.9901 24.395 12.7901 24.725 13.3601 25.385V24.08C13.3601 23.6 13.1901 23.225 12.8501 22.955C12.5101 22.685 12.0701 22.55 11.5301 22.55C10.6801 22.55 9.94008 22.885 9.31008 23.555L8.78508 22.775C9.55508 21.975 10.5201 21.575 11.6801 21.575C12.5101 21.575 13.1851 21.775 13.7051 22.175C14.2251 22.575 14.4851 23.19 14.4851 24.02V29ZM11.3651 28.37C12.2651 28.37 12.9301 28.07 13.3601 27.47V26.105C12.9301 25.505 12.2651 25.205 11.3651 25.205C10.8451 25.205 10.4151 25.355 10.0751 25.655C9.74508 25.945 9.58008 26.325 9.58008 26.795C9.58008 27.255 9.74508 27.635 10.0751 27.935C10.4151 28.225 10.8451 28.37 11.3651 28.37ZM23.1152 29H21.6752L19.0652 25.745L17.8652 26.93V29H16.7402V21.755H17.8652V25.61L21.6752 21.755H23.1002L19.8902 25.04L23.1152 29ZM23.5903 29.18V28.25C23.9303 28.25 24.2103 28.025 24.4303 27.575C24.6503 27.125 24.8303 26.375 24.9703 25.325L25.4353 21.755H30.4753V29H29.3503V22.745H26.4253L26.0953 25.46C25.9353 26.79 25.6553 27.745 25.2553 28.325C24.8553 28.895 24.3003 29.18 23.5903 29.18ZM35.9917 29.18C34.9117 29.18 34.0267 28.83 33.3367 28.13C32.6467 27.42 32.3017 26.5 32.3017 25.37C32.3017 24.31 32.6417 23.415 33.3217 22.685C34.0017 21.945 34.8517 21.575 35.8717 21.575C36.9417 21.575 37.7867 21.945 38.4067 22.685C39.0367 23.415 39.3517 24.34 39.3517 25.46V25.745H33.4867C33.5367 26.455 33.7967 27.05 34.2667 27.53C34.7367 28.01 35.3467 28.25 36.0967 28.25C36.9967 28.25 37.7417 27.945 38.3317 27.335L38.8717 28.07C38.1317 28.81 37.1717 29.18 35.9917 29.18ZM38.2417 24.92C38.2317 24.3 38.0217 23.745 37.6117 23.255C37.2017 22.755 36.6167 22.505 35.8567 22.505C35.1367 22.505 34.5667 22.75 34.1467 23.24C33.7367 23.73 33.5167 24.29 33.4867 24.92H38.2417ZM42.2538 29H41.1738V21.755H42.2988V27.29L46.0938 21.755H47.2038V29H46.0788V23.36L42.2538 29ZM46.8138 19.61C46.1638 20.49 45.2888 20.93 44.1888 20.93C43.0988 20.93 42.2188 20.49 41.5488 19.61L42.1038 19.13C42.6238 19.85 43.3188 20.21 44.1888 20.21C45.0688 20.21 45.7588 19.85 46.2588 19.13L46.8138 19.61ZM51.8952 29H50.7702V22.745H48.6702V21.755H54.0102V22.745H51.8952V29ZM58.7554 29.18C57.6754 29.18 56.7904 28.83 56.1004 28.13C55.4104 27.42 55.0654 26.5 55.0654 25.37C55.0654 24.31 55.4054 23.415 56.0854 22.685C56.7654 21.945 57.6154 21.575 58.6354 21.575C59.7054 21.575 60.5504 21.945 61.1704 22.685C61.8004 23.415 62.1154 24.34 62.1154 25.46V25.745H56.2504C56.3004 26.455 56.5604 27.05 57.0304 27.53C57.5004 28.01 58.1104 28.25 58.8604 28.25C59.7604 28.25 60.5054 27.945 61.0954 27.335L61.6354 28.07C60.8954 28.81 59.9354 29.18 58.7554 29.18ZM61.0054 24.92C60.9954 24.3 60.7854 23.745 60.3754 23.255C59.9654 22.755 59.3804 22.505 58.6204 22.505C57.9004 22.505 57.3304 22.75 56.9104 23.24C56.5004 23.73 56.2804 24.29 56.2504 24.92H61.0054ZM70.9997 29.18C69.9297 29.18 69.0597 28.82 68.3897 28.1C67.7197 27.37 67.3847 26.46 67.3847 25.37C67.3847 24.28 67.7197 23.375 68.3897 22.655C69.0597 21.935 69.9297 21.575 70.9997 21.575C72.1197 21.575 73.0047 21.995 73.6547 22.835L72.9047 23.525C72.4447 22.895 71.8297 22.58 71.0597 22.58C70.2997 22.58 69.6897 22.84 69.2297 23.36C68.7797 23.88 68.5547 24.55 68.5547 25.37C68.5547 26.19 68.7797 26.865 69.2297 27.395C69.6897 27.915 70.2997 28.175 71.0597 28.175C71.8197 28.175 72.4347 27.86 72.9047 27.23L73.6547 27.92C73.0047 28.76 72.1197 29.18 70.9997 29.18ZM81.6064 29H80.1664L77.5564 25.745L76.3564 26.93V29H75.2314V21.755H76.3564V25.61L80.1664 21.755H81.5914L78.3814 25.04L81.6064 29ZM88.6526 28.085C88.0026 28.815 87.1376 29.18 86.0576 29.18C84.9776 29.18 84.1076 28.815 83.4476 28.085C82.7976 27.355 82.4726 26.45 82.4726 25.37C82.4726 24.29 82.7976 23.39 83.4476 22.67C84.1076 21.94 84.9776 21.575 86.0576 21.575C87.1376 21.575 88.0026 21.94 88.6526 22.67C89.3126 23.39 89.6426 24.29 89.6426 25.37C89.6426 26.45 89.3126 27.355 88.6526 28.085ZM84.2876 27.365C84.7276 27.905 85.3176 28.175 86.0576 28.175C86.7976 28.175 87.3826 27.905 87.8126 27.365C88.2426 26.815 88.4576 26.15 88.4576 25.37C88.4576 24.59 88.2426 23.93 87.8126 23.39C87.3826 22.85 86.7976 22.58 86.0576 22.58C85.3176 22.58 84.7276 22.855 84.2876 23.405C83.8576 23.945 83.6426 24.6 83.6426 25.37C83.6426 26.15 83.8576 26.815 84.2876 27.365ZM93.9216 29H92.7966V22.745H90.6966V21.755H96.0366V22.745H93.9216V29ZM97.3617 21.755H98.4867V23.795C98.4867 24.445 98.6367 24.895 98.9367 25.145C99.2367 25.395 99.7017 25.52 100.332 25.52C101.112 25.52 101.752 25.39 102.252 25.13V21.755H103.377V29H102.252V26.045C101.612 26.365 100.877 26.525 100.047 26.525C99.1067 26.525 98.4217 26.335 97.9917 25.955C97.5717 25.575 97.3617 24.97 97.3617 24.14V21.755ZM108.897 29.18C107.817 29.18 106.932 28.83 106.242 28.13C105.552 27.42 105.207 26.5 105.207 25.37C105.207 24.31 105.547 23.415 106.227 22.685C106.907 21.945 107.757 21.575 108.777 21.575C109.847 21.575 110.692 21.945 111.312 22.685C111.942 23.415 112.257 24.34 112.257 25.46V25.745H106.392C106.442 26.455 106.702 27.05 107.172 27.53C107.642 28.01 108.252 28.25 109.002 28.25C109.902 28.25 110.647 27.945 111.237 27.335L111.777 28.07C111.037 28.81 110.077 29.18 108.897 29.18ZM111.147 24.92C111.137 24.3 110.927 23.745 110.517 23.255C110.107 22.755 109.522 22.505 108.762 22.505C108.042 22.505 107.472 22.75 107.052 23.24C106.642 23.73 106.422 24.29 106.392 24.92H111.147ZM121.474 29H120.349V23.315L117.994 29H117.574L115.204 23.315V29H114.079V21.755H115.564L117.784 27.125L119.974 21.755H121.474V29Z" fill="white" fill-opacity="0.5"/>
</svg>
