<svg width="159" height="26" viewBox="0 0 159 26" fill="none" xmlns="http://www.w3.org/2000/svg">
<path d="M19.024 25H15.316L6.208 14.2L3.796 16.936V25H0.808V0.987998H3.796V13.408L14.416 0.987998H18.16L8.152 12.4L19.024 25ZM31.4395 25.432C27.9115 25.432 25.0435 24.256 22.8355 21.904C20.6275 19.552 19.5235 16.588 19.5235 13.012C19.5235 9.436 20.6275 6.472 22.8355 4.12C25.0435 1.768 27.9115 0.591999 31.4395 0.591999C34.9435 0.591999 37.7995 1.768 40.0075 4.12C42.2395 6.472 43.3555 9.436 43.3555 13.012C43.3555 16.588 42.2395 19.552 40.0075 21.904C37.7995 24.256 34.9435 25.432 31.4395 25.432ZM31.4395 22.768C34.0795 22.768 36.2035 21.856 37.8115 20.032C39.4435 18.184 40.2595 15.844 40.2595 13.012C40.2595 10.156 39.4435 7.816 37.8115 5.992C36.2035 4.168 34.0795 3.256 31.4395 3.256C28.7755 3.256 26.6395 4.168 25.0315 5.992C23.4235 7.816 22.6195 10.156 22.6195 13.012C22.6195 15.844 23.4235 18.184 25.0315 20.032C26.6395 21.856 28.7755 22.768 31.4395 22.768ZM51.0108 25H48.0228V0.987998H57.6708C59.9988 0.987998 61.8348 1.684 63.1788 3.076C64.5228 4.468 65.1948 6.184 65.1948 8.224C65.1948 10.264 64.5108 11.98 63.1428 13.372C61.7988 14.764 59.9748 15.46 57.6708 15.46H51.0108V25ZM57.3108 12.796C58.7268 12.796 59.8788 12.376 60.7668 11.536C61.6548 10.672 62.0988 9.568 62.0988 8.224C62.0988 6.88 61.6548 5.788 60.7668 4.948C59.8788 4.084 58.7268 3.652 57.3108 3.652H51.0108V12.796H57.3108ZM80.0958 25.432C76.5678 25.432 73.6998 24.256 71.4918 21.904C69.2838 19.552 68.1798 16.588 68.1798 13.012C68.1798 9.436 69.2838 6.472 71.4918 4.12C73.6998 1.768 76.5678 0.591999 80.0958 0.591999C83.5998 0.591999 86.4557 1.768 88.6638 4.12C90.8958 6.472 92.0118 9.436 92.0118 13.012C92.0118 16.588 90.8958 19.552 88.6638 21.904C86.4557 24.256 83.5998 25.432 80.0958 25.432ZM80.0958 22.768C82.7358 22.768 84.8598 21.856 86.4678 20.032C88.0998 18.184 88.9158 15.844 88.9158 13.012C88.9158 10.156 88.0998 7.816 86.4678 5.992C84.8598 4.168 82.7358 3.256 80.0958 3.256C77.4318 3.256 75.2958 4.168 73.6878 5.992C72.0798 7.816 71.2758 10.156 71.2758 13.012C71.2758 15.844 72.0798 18.184 73.6878 20.032C75.2958 21.856 77.4318 22.768 80.0958 22.768ZM96.6791 0.987998H112.267V3.652H99.6671V10.528H106.327C108.631 10.528 110.455 11.224 111.799 12.616C113.167 14.008 113.851 15.724 113.851 17.764C113.851 19.804 113.179 21.52 111.835 22.912C110.491 24.304 108.655 25 106.327 25H96.6791V0.987998ZM105.967 13.192H99.6671V22.336H105.967C107.383 22.336 108.535 21.916 109.423 21.076C110.311 20.212 110.755 19.108 110.755 17.764C110.755 16.42 110.311 15.328 109.423 14.488C108.535 13.624 107.383 13.192 105.967 13.192ZM136.024 25H132.316L123.208 14.2L120.796 16.936V25H117.808V0.987998H120.796V13.408L131.416 0.987998H135.16L125.152 12.4L136.024 25ZM141.841 25.432C140.857 25.432 139.945 25.252 139.105 24.892C138.265 24.532 137.617 24.076 137.161 23.524L138.421 21.148C139.453 22.228 140.545 22.768 141.697 22.768C142.609 22.768 143.329 22.528 143.857 22.048C144.409 21.568 145.033 20.668 145.729 19.348L146.161 18.52L136.945 0.987998H140.365L147.889 15.856L155.413 0.987998H158.833L148.357 20.752C147.517 22.336 146.617 23.512 145.657 24.28C144.697 25.048 143.425 25.432 141.841 25.432Z" fill="white"/>
</svg>
