<svg width="256" height="96" viewBox="0 0 256 96" fill="none" xmlns="http://www.w3.org/2000/svg">
<g filter="url(#filter0_d_7_6)">
<path d="M38.868 63.432C36.324 63.432 34.296 62.82 32.784 61.596L35.232 56.772C36.312 57.564 37.344 57.96 38.328 57.96C39.072 57.96 39.648 57.828 40.056 57.564C40.488 57.276 40.896 56.808 41.28 56.16L32.604 38.988H39.588L44.772 50.22L49.992 38.988H56.976L47.22 58.284C45.468 61.716 42.684 63.432 38.868 63.432ZM81.1058 63H74.9138V44.388H64.9418V63H58.7498V38.988H81.1058V63ZM108.761 63H101.741L100.553 59.544H91.0854L89.8974 63H82.8774L91.9134 38.988H99.6894L108.761 63ZM98.8614 54.144L95.8014 45.108L92.7414 54.144H98.8614ZM132.243 63H124.647L118.347 53.964L116.727 55.98V63H110.535V38.988H116.727V48.852L124.107 38.988H131.739L122.415 50.22L132.243 63ZM137.798 63.432C135.254 63.432 133.226 62.82 131.714 61.596L134.162 56.772C135.242 57.564 136.274 57.96 137.258 57.96C138.002 57.96 138.578 57.828 138.986 57.564C139.418 57.276 139.826 56.808 140.21 56.16L131.534 38.988H138.518L143.702 50.22L148.922 38.988H155.906L146.15 58.284C144.398 61.716 141.614 63.432 137.798 63.432ZM163.656 63H157.68V38.988H163.872V53.136L173.592 38.988H180V63H173.772V48.168L163.656 63ZM175.14 34.812C173.58 36.924 171.48 37.98 168.84 37.98C166.224 37.98 164.112 36.924 162.504 34.812L164.88 32.868C165.912 34.26 167.232 34.956 168.84 34.956C170.52 34.956 171.828 34.26 172.764 32.868L175.14 34.812ZM195.884 63H189.692V44.388H182.96V38.988H202.58V44.388H195.884V63ZM223.131 63H205.527V38.988H223.131V44.388H211.719V48.132H222.879V53.532H211.719V57.6H223.131V63Z" fill="white"/>
</g>
<defs>
<filter id="filter0_d_7_6" x="0.604004" y="0.868011" width="254.527" height="94.564" filterUnits="userSpaceOnUse" color-interpolation-filters="sRGB">
<feFlood flood-opacity="0" result="BackgroundImageFix"/>
<feColorMatrix in="SourceAlpha" type="matrix" values="0 0 0 0 0 0 0 0 0 0 0 0 0 0 0 0 0 0 127 0" result="hardAlpha"/>
<feOffset/>
<feGaussianBlur stdDeviation="16"/>
<feComposite in2="hardAlpha" operator="out"/>
<feColorMatrix type="matrix" values="0 0 0 0 1 0 0 0 0 1 0 0 0 0 1 0 0 0 0.76 0"/>
<feBlend mode="normal" in2="BackgroundImageFix" result="effect1_dropShadow_7_6"/>
<feBlend mode="normal" in="SourceGraphic" in2="effect1_dropShadow_7_6" result="shape"/>
</filter>
</defs>
</svg>
